<svg width="26" height="26" viewBox="0 0 26 26" fill="none" xmlns="http://www.w3.org/2000/svg">
<path d="M13 22.6385L18.3622 17.2762C21.3237 14.3148 21.3237 9.51331 18.3622 6.55183C15.4008 3.59036 10.5992 3.59036 7.63777 6.55183C4.6763 9.51331 4.6763 14.3148 7.63777 17.2762L13 22.6385ZM13 25.7026L6.10571 18.8084C2.2981 15.0007 2.2981 8.82739 6.10571 5.01977C9.91332 1.21216 16.0866 1.21216 19.8943 5.01977C23.7019 8.82739 23.7019 15.0007 19.8943 18.8084L13 25.7026ZM13 14.0807C14.1967 14.0807 15.1667 13.1107 15.1667 11.9141C15.1667 10.7174 14.1967 9.7474 13 9.7474C11.8034 9.7474 10.8333 10.7174 10.8333 11.9141C10.8333 13.1107 11.8034 14.0807 13 14.0807ZM13 16.2474C10.6068 16.2474 8.66667 14.3073 8.66667 11.9141C8.66667 9.52083 10.6068 7.58073 13 7.58073C15.3932 7.58073 17.3333 9.52083 17.3333 11.9141C17.3333 14.3073 15.3932 16.2474 13 16.2474Z" fill="#020202"/>
</svg>
