<svg width="26" height="26" viewBox="0 0 26 26" fill="none" xmlns="http://www.w3.org/2000/svg">
<path d="M10.146 11.5723C11.1605 13.3562 12.6438 14.8395 14.4277 15.8539L15.3859 14.5124C15.7045 14.0665 16.3059 13.9287 16.7869 14.1915C18.3109 15.024 19.9952 15.5299 21.7521 15.669C22.3156 15.7136 22.75 16.1838 22.75 16.749V21.5837C22.75 22.1391 22.3299 22.6045 21.7774 22.6613C21.2033 22.7203 20.6242 22.75 20.0417 22.75C10.7679 22.75 3.25 15.2321 3.25 5.95833C3.25 5.37579 3.27971 4.79669 3.33871 4.22257C3.39549 3.67006 3.86094 3.25 4.41637 3.25H9.25104C9.81619 3.25 10.2864 3.68446 10.331 4.24785C10.4701 6.00479 10.976 7.68911 11.8085 9.21314C12.0713 9.6941 11.9335 10.2955 11.4876 10.614L10.146 11.5723ZM7.4146 10.8606L9.47288 9.39043C8.88926 8.13057 8.4893 6.79448 8.28454 5.41667H5.42649C5.41995 5.59685 5.41667 5.77742 5.41667 5.95833C5.41667 14.0354 11.9646 20.5833 20.0417 20.5833C20.2226 20.5833 20.4032 20.5801 20.5833 20.5735V17.7154C19.2056 17.5107 17.8695 17.1107 16.6096 16.5271L15.1394 18.5855C14.5446 18.3544 13.9702 18.0825 13.4197 17.7733L13.3567 17.7374C11.2338 16.5303 9.46979 14.7662 8.26258 12.6433L8.22677 12.5803C7.91753 12.0298 7.64567 11.4554 7.4146 10.8606Z" fill="#020202"/>
</svg>
