<svg width="40" height="40" viewBox="0 0 40 40" fill="none" xmlns="http://www.w3.org/2000/svg">
<path d="M40 20C40 8.95431 31.0457 0 20 0C8.95431 0 0 8.95431 0 20C0 31.0457 8.95431 40 20 40C31.0457 40 40 31.0457 40 20Z" fill="#020202"/>
<path d="M21.7349 30C18.7218 30 16.487 28.4557 16.487 24.752V18.8261H13.75V15.6121C16.7632 14.8336 18.0187 12.2473 18.1568 10H21.283V15.0973H24.9239V18.8261H21.283V23.9862C21.283 25.5304 22.0614 26.0703 23.3043 26.0703H25.0745V30H21.7349Z" fill="#FDFDFD"/>
</svg>
