<svg width="42" height="42" viewBox="0 0 42 42" fill="none" xmlns="http://www.w3.org/2000/svg">
<g filter="url(#filter0_i_5318_525)">
<rect width="42" height="42" rx="4" fill="#FDFDFD"/>
</g>
<path d="M11.25 21H21V22.625H11.25V21ZM9.625 16.9375H17.75V18.5625H9.625V16.9375Z" fill="#2B48F1"/>
<path d="M32.3092 21.4924L29.8717 15.8049C29.8091 15.6587 29.705 15.5341 29.5722 15.4466C29.4395 15.359 29.284 15.3124 29.125 15.3125H26.6875V13.6875C26.6875 13.472 26.6019 13.2653 26.4495 13.113C26.2971 12.9606 26.0905 12.875 25.875 12.875H12.875V14.5H25.0625V24.7017C24.6922 24.9167 24.3682 25.2029 24.1091 25.5437C23.85 25.8845 23.661 26.2733 23.5528 26.6875H18.4471C18.2493 25.9216 17.779 25.2541 17.1243 24.8101C16.4696 24.3662 15.6755 24.1762 14.8908 24.2759C14.1061 24.3756 13.3846 24.758 12.8617 25.3516C12.3388 25.9451 12.0503 26.709 12.0503 27.5C12.0503 28.291 12.3388 29.0549 12.8617 29.6484C13.3846 30.242 14.1061 30.6244 14.8908 30.7241C15.6755 30.8238 16.4696 30.6338 17.1243 30.1899C17.779 29.7459 18.2493 29.0784 18.4471 28.3125H23.5528C23.7296 29.0098 24.1338 29.6283 24.7015 30.0701C25.2693 30.5119 25.9681 30.7517 26.6875 30.7517C27.4068 30.7517 28.1057 30.5119 28.6734 30.0701C29.2411 29.6283 29.6453 29.0098 29.8221 28.3125H31.5625C31.778 28.3125 31.9846 28.2269 32.137 28.0745C32.2894 27.9222 32.375 27.7155 32.375 27.5V21.8125C32.375 21.7024 32.3526 21.5935 32.3092 21.4924ZM15.3125 29.125C14.9911 29.125 14.6769 29.0297 14.4097 28.8511C14.1424 28.6726 13.9342 28.4188 13.8112 28.1219C13.6882 27.8249 13.656 27.4982 13.7187 27.183C13.7814 26.8678 13.9362 26.5782 14.1634 26.351C14.3907 26.1237 14.6802 25.9689 14.9954 25.9062C15.3107 25.8435 15.6374 25.8757 15.9343 25.9987C16.2313 26.1217 16.485 26.33 16.6636 26.5972C16.8422 26.8644 16.9375 27.1786 16.9375 27.5C16.937 27.9308 16.7657 28.3439 16.461 28.6486C16.1564 28.9532 15.7433 29.1246 15.3125 29.125ZM26.6875 16.9375H28.5887L30.3307 21H26.6875V16.9375ZM26.6875 29.125C26.3661 29.125 26.0519 29.0297 25.7847 28.8511C25.5174 28.6726 25.3092 28.4188 25.1862 28.1219C25.0632 27.8249 25.031 27.4982 25.0937 27.183C25.1564 26.8678 25.3112 26.5782 25.5384 26.351C25.7657 26.1237 26.0552 25.9689 26.3704 25.9062C26.6857 25.8435 27.0124 25.8757 27.3093 25.9987C27.6063 26.1217 27.86 26.33 28.0386 26.5972C28.2172 26.8644 28.3125 27.1786 28.3125 27.5C28.312 27.9308 28.1407 28.3439 27.836 28.6486C27.5314 28.9532 27.1183 29.1246 26.6875 29.125ZM30.75 26.6875H29.8221C29.6431 25.9915 29.2383 25.3746 28.671 24.9335C28.1037 24.4924 27.4061 24.252 26.6875 24.25V22.625H30.75V26.6875Z" fill="#2B48F1"/>
<defs>
<filter id="filter0_i_5318_525" x="0" y="0" width="42" height="42" filterUnits="userSpaceOnUse" color-interpolation-filters="sRGB">
<feFlood flood-opacity="0" result="BackgroundImageFix"/>
<feBlend mode="normal" in="SourceGraphic" in2="BackgroundImageFix" result="shape"/>
<feColorMatrix in="SourceAlpha" type="matrix" values="0 0 0 0 0 0 0 0 0 0 0 0 0 0 0 0 0 0 127 0" result="hardAlpha"/>
<feMorphology radius="1" operator="erode" in="SourceAlpha" result="effect1_innerShadow_5318_525"/>
<feOffset/>
<feGaussianBlur stdDeviation="5.5"/>
<feComposite in2="hardAlpha" operator="arithmetic" k2="-1" k3="1"/>
<feColorMatrix type="matrix" values="0 0 0 0 0.749038 0 0 0 0 0.78526 0 0 0 0 1 0 0 0 0.75 0"/>
<feBlend mode="normal" in2="shape" result="effect1_innerShadow_5318_525"/>
</filter>
</defs>
</svg>
