<svg width="42" height="42" viewBox="0 0 42 42" fill="none" xmlns="http://www.w3.org/2000/svg">
<g filter="url(#filter0_i_5318_517)">
<rect width="42" height="42" rx="4" fill="#FDFDFD"/>
</g>
<path d="M15.5721 19.1215C17.8206 19.1215 19.6433 17.2987 19.6433 15.0503C19.6433 12.8018 17.8206 10.9791 15.5721 10.9791C13.3237 10.9791 11.501 12.8018 11.501 15.0503C11.501 17.2987 13.3237 19.1215 15.5721 19.1215Z" stroke="#2B48F1" stroke-width="2" stroke-linecap="round" stroke-linejoin="round"/>
<path d="M26.4281 31.0209C28.6765 31.0209 30.4993 29.1982 30.4993 26.9497C30.4993 24.7013 28.6765 22.8785 26.4281 22.8785C24.1797 22.8785 22.3569 24.7013 22.3569 26.9497C22.3569 29.1982 24.1797 31.0209 26.4281 31.0209Z" stroke="#2B48F1" stroke-width="2" stroke-linecap="round" stroke-linejoin="round"/>
<path d="M13.9438 31.0208L28.0564 10.9791" stroke="#2B48F1" stroke-width="2" stroke-linecap="round" stroke-linejoin="round"/>
<defs>
<filter id="filter0_i_5318_517" x="0" y="0" width="42" height="42" filterUnits="userSpaceOnUse" color-interpolation-filters="sRGB">
<feFlood flood-opacity="0" result="BackgroundImageFix"/>
<feBlend mode="normal" in="SourceGraphic" in2="BackgroundImageFix" result="shape"/>
<feColorMatrix in="SourceAlpha" type="matrix" values="0 0 0 0 0 0 0 0 0 0 0 0 0 0 0 0 0 0 127 0" result="hardAlpha"/>
<feMorphology radius="1" operator="erode" in="SourceAlpha" result="effect1_innerShadow_5318_517"/>
<feOffset/>
<feGaussianBlur stdDeviation="5.5"/>
<feComposite in2="hardAlpha" operator="arithmetic" k2="-1" k3="1"/>
<feColorMatrix type="matrix" values="0 0 0 0 0.749038 0 0 0 0 0.78526 0 0 0 0 1 0 0 0 0.75 0"/>
<feBlend mode="normal" in2="shape" result="effect1_innerShadow_5318_517"/>
</filter>
</defs>
</svg>
