<svg width="42" height="42" viewBox="0 0 42 42" fill="none" xmlns="http://www.w3.org/2000/svg">
<g filter="url(#filter0_i_5318_524)">
<rect width="42" height="42" rx="4" fill="#FDFDFD"/>
</g>
<path d="M29.6668 32.834H27.5002V30.6673C27.5002 28.8723 26.0451 27.4173 24.2502 27.4173H17.7502C15.9552 27.4173 14.5002 28.8723 14.5002 30.6673V32.834H12.3335V30.6673C12.3335 27.6758 14.7586 25.2507 17.7502 25.2507H24.2502C27.2417 25.2507 29.6668 27.6758 29.6668 30.6673V32.834ZM21.0002 23.084C17.4103 23.084 14.5002 20.1738 14.5002 16.584C14.5002 12.9941 17.4103 10.084 21.0002 10.084C24.59 10.084 27.5002 12.9941 27.5002 16.584C27.5002 20.1738 24.59 23.084 21.0002 23.084ZM21.0002 20.9173C23.3934 20.9173 25.3335 18.9772 25.3335 16.584C25.3335 14.1907 23.3934 12.2507 21.0002 12.2507C18.6069 12.2507 16.6668 14.1907 16.6668 16.584C16.6668 18.9772 18.6069 20.9173 21.0002 20.9173Z" fill="#2B48F1"/>
<defs>
<filter id="filter0_i_5318_524" x="0" y="0" width="42" height="42" filterUnits="userSpaceOnUse" color-interpolation-filters="sRGB">
<feFlood flood-opacity="0" result="BackgroundImageFix"/>
<feBlend mode="normal" in="SourceGraphic" in2="BackgroundImageFix" result="shape"/>
<feColorMatrix in="SourceAlpha" type="matrix" values="0 0 0 0 0 0 0 0 0 0 0 0 0 0 0 0 0 0 127 0" result="hardAlpha"/>
<feMorphology radius="1" operator="erode" in="SourceAlpha" result="effect1_innerShadow_5318_524"/>
<feOffset/>
<feGaussianBlur stdDeviation="5.5"/>
<feComposite in2="hardAlpha" operator="arithmetic" k2="-1" k3="1"/>
<feColorMatrix type="matrix" values="0 0 0 0 0.749038 0 0 0 0 0.78526 0 0 0 0 1 0 0 0 0.75 0"/>
<feBlend mode="normal" in2="shape" result="effect1_innerShadow_5318_524"/>
</filter>
</defs>
</svg>
