<svg width="42" height="42" viewBox="0 0 42 42" fill="none" xmlns="http://www.w3.org/2000/svg">
<g filter="url(#filter0_i_5318_522)">
<rect width="42" height="42" rx="4" fill="#FDFDFD"/>
</g>
<path fill-rule="evenodd" clip-rule="evenodd" d="M32.0062 14.6632L30.7387 14.3642L27.3132 17.7702L25.373 15.7942L28.714 12.2891L28.4215 11.0021C27.7155 10.7659 26.977 10.6409 26.2326 10.6316C25.4205 10.6191 24.6146 10.774 23.865 11.0866C23.1412 11.4142 22.487 11.8775 21.9377 12.4516C21.3263 13.0307 20.8421 13.7308 20.5159 14.5072C19.8877 16.0524 19.8877 17.7817 20.5159 19.3269C17.1281 22.6598 13.7841 26.0368 10.4847 29.4572C10.1435 29.9041 9.98098 30.4614 10.0232 31.0221C10.0565 31.625 10.3277 32.1902 10.7772 32.5934C10.9787 32.8128 11.2192 32.9948 11.4874 33.1264C11.7636 33.2483 12.061 33.3182 12.3616 33.3328C12.8751 33.3231 13.3675 33.1281 13.7494 32.7852C16.2649 30.4176 21.0846 25.5539 23.8227 22.7037C24.5654 23.0189 25.3632 23.1814 26.1692 23.1798C26.9806 23.1792 27.7835 23.0159 28.5307 22.6997C29.2779 22.3835 29.9541 21.9207 30.5194 21.3387C31.6805 20.1545 32.329 18.5609 32.3247 16.9024C32.3435 16.1435 32.2359 15.3868 32.0062 14.6632ZM12.7662 31.6331C12.7037 31.6886 12.6283 31.7277 12.5469 31.7468C12.4667 31.7607 12.3848 31.7607 12.3047 31.7468C12.2207 31.734 12.1407 31.7023 12.0707 31.6542C11.9956 31.6102 11.9321 31.5489 11.8855 31.4754C11.658 31.2431 11.4451 30.8011 11.658 30.5524C13.8842 28.1848 18.4684 23.5568 21.3349 20.7277C21.4974 20.9422 21.6761 21.1469 21.8679 21.3387C22.0596 21.5386 22.266 21.7238 22.4854 21.8928C19.7131 24.7366 15.1907 29.3093 12.7662 31.6331ZM30.833 16.9024C30.8362 18.1456 30.352 19.3399 29.481 20.2304C28.6118 21.0831 27.4428 21.5607 26.2253 21.5607C25.0077 21.5607 23.8388 21.0831 22.9696 20.2304C22.3326 19.5656 21.8974 18.7336 21.7147 17.8312C21.5321 16.9288 21.6094 15.993 21.9377 15.1328C22.1563 14.5474 22.4953 14.0143 22.9328 13.5681C23.3703 13.122 23.8966 12.7726 24.4776 12.5426C25.0293 12.3117 25.6216 12.1934 26.2196 12.1948H26.6324L23.6797 15.2384V16.3694L26.7591 19.4342H27.8316L30.833 16.4832V16.9024ZM13.2651 19.8681H15.753L16.8986 21.0332L18.0004 19.9379L16.9197 18.8362V18.7663L17.0124 16.0867L16.6549 15.3766L12.0074 12.3183L11.047 12.4256L9.69661 13.8052L9.58936 14.7786L12.5761 19.5203L13.2651 19.8681ZM11.7295 13.9661L15.4897 16.4426L15.4264 18.2674H13.6779L11.2534 14.4292L11.7295 13.9661ZM23.2751 25.2761L24.3704 24.1824L29.4176 29.3581C29.8427 29.8049 30.0798 30.398 30.0798 31.0147C30.0798 31.6315 29.8427 32.2246 29.4176 32.6714C29.0979 32.9996 28.6869 33.224 28.2379 33.3153C27.789 33.4066 27.3229 33.3606 26.9005 33.1833C26.6309 33.0637 26.389 32.8894 26.1904 32.6714L21.0846 27.4666L22.188 26.3648L27.2775 31.5551C27.3459 31.6305 27.4311 31.689 27.5261 31.7257C27.7131 31.8017 27.9224 31.8017 28.1095 31.7257C28.2045 31.6889 28.2896 31.6305 28.3581 31.5551C28.4292 31.4846 28.4846 31.3999 28.5206 31.3064C28.5579 31.2111 28.5777 31.1098 28.5791 31.0074C28.5775 30.9052 28.5582 30.8041 28.5222 30.7084C28.4862 30.615 28.4309 30.5303 28.3597 30.4598L23.2751 25.2761Z" fill="#2B48F1"/>
<defs>
<filter id="filter0_i_5318_522" x="0" y="0" width="42" height="42" filterUnits="userSpaceOnUse" color-interpolation-filters="sRGB">
<feFlood flood-opacity="0" result="BackgroundImageFix"/>
<feBlend mode="normal" in="SourceGraphic" in2="BackgroundImageFix" result="shape"/>
<feColorMatrix in="SourceAlpha" type="matrix" values="0 0 0 0 0 0 0 0 0 0 0 0 0 0 0 0 0 0 127 0" result="hardAlpha"/>
<feMorphology radius="1" operator="erode" in="SourceAlpha" result="effect1_innerShadow_5318_522"/>
<feOffset/>
<feGaussianBlur stdDeviation="5.5"/>
<feComposite in2="hardAlpha" operator="arithmetic" k2="-1" k3="1"/>
<feColorMatrix type="matrix" values="0 0 0 0 0.749038 0 0 0 0 0.78526 0 0 0 0 1 0 0 0 0.75 0"/>
<feBlend mode="normal" in2="shape" result="effect1_innerShadow_5318_522"/>
</filter>
</defs>
</svg>
