<svg width="22" height="21" viewBox="0 0 22 21" fill="none" xmlns="http://www.w3.org/2000/svg">
<path d="M11.0009 1.90591C13.5457 -0.378333 17.4782 -0.302499 19.9293 2.15381C22.3806 4.61011 22.4648 8.52342 20.185 11.0758L10.9997 20.2754L1.81466 11.0758C-0.465027 8.52342 -0.379812 4.60393 2.07031 2.15381C4.5232 -0.299087 8.44879 -0.381723 11.0009 1.90591ZM18.3958 3.68428C16.7717 2.05694 14.1497 1.99093 12.4483 3.51828L11.0019 4.81651L9.55478 3.51929C7.8484 1.9898 5.23115 2.05709 3.60237 3.68587C1.98848 5.29975 1.90746 7.88458 3.39476 9.5918L10.9997 17.2088L18.6049 9.5918C20.0928 7.88393 20.0121 5.30402 18.3958 3.68428Z" fill="#3C3C3A"/>
</svg>
