<svg width="30" height="27" viewBox="0 0 30 27" fill="none" xmlns="http://www.w3.org/2000/svg">
<path d="M15.0011 2.41542C18.3288 -0.571666 23.4713 -0.472499 26.6767 2.73959C29.8822 5.95169 29.9923 11.0691 27.011 14.4068L14.9995 26.4371L2.98829 14.4068C0.00715941 11.0691 0.118594 5.9436 3.3226 2.73959C6.53023 -0.468037 11.6637 -0.5761 15.0011 2.41542ZM24.6713 4.74098C22.5475 2.61292 19.1188 2.5266 16.8938 4.5239L15.0024 6.22159L13.11 4.52523C10.8786 2.52513 7.45601 2.61311 5.32606 4.74306C3.2156 6.85352 3.10965 10.2337 5.05457 12.4662L14.9995 22.4269L24.9448 12.4662C26.8905 10.2328 26.7849 6.85911 24.6713 4.74098Z" fill="#3C3C3A"/>
</svg>
