<svg width="26" height="26" viewBox="0 0 26 26" fill="none" xmlns="http://www.w3.org/2000/svg">
<path d="M9.71226 19.4993C9.44942 21.3368 7.86916 22.7493 5.95898 22.7493C4.04881 22.7493 2.46855 21.3368 2.20571 19.4993H1.08398V6.49935C1.08398 5.90105 1.56901 5.41602 2.16732 5.41602H17.334C17.9323 5.41602 18.4173 5.90105 18.4173 6.49935V8.66602H21.6673L24.9173 13.0597V19.4993H22.7123C22.4494 21.3368 20.8691 22.7493 18.959 22.7493C17.0489 22.7493 15.4686 21.3368 15.2057 19.4993H9.71226ZM16.2507 7.58268H3.25065V16.3041C3.93885 15.6017 4.89803 15.166 5.95898 15.166C7.47153 15.166 8.77722 16.0516 9.38576 17.3327H15.5322C15.7139 16.9503 15.9577 16.6029 16.2507 16.3041V7.58268ZM18.4173 14.0827H22.7506V13.7739L20.575 10.8327H18.4173V14.0827ZM18.959 20.5827C19.6665 20.5827 20.2684 20.1305 20.4915 19.4993C20.5514 19.3299 20.584 19.1476 20.584 18.9577C20.584 18.0602 19.8564 17.3327 18.959 17.3327C18.0616 17.3327 17.334 18.0602 17.334 18.9577C17.334 19.1476 17.3666 19.3299 17.4265 19.4993C17.6496 20.1305 18.2515 20.5827 18.959 20.5827ZM7.58398 18.9577C7.58398 18.0602 6.85645 17.3327 5.95898 17.3327C5.06152 17.3327 4.33398 18.0602 4.33398 18.9577C4.33398 19.1476 4.36657 19.3299 4.42645 19.4993C4.64953 20.1305 5.25145 20.5827 5.95898 20.5827C6.66652 20.5827 7.26844 20.1305 7.49152 19.4993C7.5514 19.3299 7.58398 19.1476 7.58398 18.9577Z" fill="#020202"/>
</svg>
