<svg width="26" height="26" viewBox="0 0 26 26" fill="none" xmlns="http://www.w3.org/2000/svg">
<path d="M13.0014 4.90591C15.5462 2.62167 19.4787 2.6975 21.9298 5.15381C24.3811 7.61011 24.4652 11.5234 22.1855 14.0758L13.0002 23.2754L3.81515 14.0758C1.53546 11.5234 1.62068 7.60393 4.0708 5.15381C6.52369 2.70091 10.4493 2.61828 13.0014 4.90591ZM20.3962 6.68428C18.7722 5.05694 16.1502 4.99093 14.4487 6.51828L13.0024 7.81651L11.5553 6.51929C9.84889 4.9898 7.23164 5.05709 5.60286 6.68587C3.98897 8.29975 3.90795 10.8846 5.39525 12.5918L13.0002 20.2088L20.6054 12.5918C22.0933 10.8839 22.0126 8.30402 20.3962 6.68428Z" fill="#020202"/>
</svg>
