<svg width="26" height="26" viewBox="0 0 26 26" fill="none" xmlns="http://www.w3.org/2000/svg">
<path d="M13.0009 4.90591C15.5457 2.62167 19.4782 2.6975 21.9293 5.15381C24.3806 7.61011 24.4648 11.5234 22.185 14.0758L12.9997 23.2754L3.81466 14.0758C1.53497 11.5234 1.62019 7.60393 4.07031 5.15381C6.5232 2.70091 10.4488 2.61828 13.0009 4.90591ZM20.3958 6.68428C18.7717 5.05694 16.1497 4.99093 14.4483 6.51828L13.0019 7.81651L11.5548 6.51929C9.8484 4.9898 7.23115 5.05709 5.60237 6.68587C3.98848 8.29975 3.90746 10.8846 5.39476 12.5918L12.9997 20.2088L20.6049 12.5918C22.0928 10.8839 22.0121 8.30402 20.3958 6.68428Z" fill="#3C3C3A"/>
</svg>
