<svg width="26" height="26" viewBox="0 0 26 26" fill="none" xmlns="http://www.w3.org/2000/svg">
<path d="M13 22.6405L18.3622 17.2782C21.3237 14.3168 21.3237 9.51526 18.3622 6.55379C15.4008 3.59231 10.5992 3.59231 7.63777 6.55379C4.6763 9.51526 4.6763 14.3168 7.63777 17.2782L13 22.6405ZM13 25.7046L6.10571 18.8103C2.2981 15.0026 2.2981 8.82934 6.10571 5.02173C9.91332 1.21411 16.0866 1.21411 19.8943 5.02173C23.7019 8.82934 23.7019 15.0026 19.8943 18.8103L13 25.7046ZM13 14.0827C14.1967 14.0827 15.1667 13.1127 15.1667 11.916C15.1667 10.7194 14.1967 9.74935 13 9.74935C11.8034 9.74935 10.8333 10.7194 10.8333 11.916C10.8333 13.1127 11.8034 14.0827 13 14.0827ZM13 16.2493C10.6068 16.2493 8.66667 14.3092 8.66667 11.916C8.66667 9.52278 10.6068 7.58268 13 7.58268C15.3932 7.58268 17.3333 9.52278 17.3333 11.916C17.3333 14.3092 15.3932 16.2493 13 16.2493Z" fill="#020202"/>
</svg>
