<svg width="26" height="26" viewBox="0 0 26 26" fill="none" xmlns="http://www.w3.org/2000/svg">
<path d="M4.33854 17.3327V4.33268H2.17188V2.16602H5.42187C6.02019 2.16602 6.50521 2.65105 6.50521 3.24935V16.2493H19.9802L22.1468 7.58268H8.67187V5.41602H23.5344C24.1327 5.41602 24.6177 5.90105 24.6177 6.49935C24.6177 6.58792 24.6069 6.67617 24.5853 6.7621L21.877 17.5954C21.7565 18.0777 21.3232 18.416 20.826 18.416H5.42187C4.82357 18.416 4.33854 17.931 4.33854 17.3327ZM6.50521 24.916C5.30859 24.916 4.33854 23.946 4.33854 22.7493C4.33854 21.5527 5.30859 20.5827 6.50521 20.5827C7.70183 20.5827 8.67187 21.5527 8.67187 22.7493C8.67187 23.946 7.70183 24.916 6.50521 24.916ZM19.5052 24.916C18.3086 24.916 17.3386 23.946 17.3386 22.7493C17.3386 21.5527 18.3086 20.5827 19.5052 20.5827C20.7019 20.5827 21.6719 21.5527 21.6719 22.7493C21.6719 23.946 20.7019 24.916 19.5052 24.916Z" fill="#020202"/>
</svg>
