<svg width="42" height="42" viewBox="0 0 42 42" fill="none" xmlns="http://www.w3.org/2000/svg">
<g filter="url(#filter0_i_7320_518)">
<rect width="42" height="42" rx="4" fill="#FDFDFD"/>
</g>
<path d="M29.6673 31.834H27.5006V29.6673C27.5006 27.8723 26.0456 26.4173 24.2507 26.4173H17.7507C15.9557 26.4173 14.5007 27.8723 14.5007 29.6673V31.834H12.334V29.6673C12.334 26.6758 14.7591 24.2507 17.7507 24.2507H24.2507C27.2422 24.2507 29.6673 26.6758 29.6673 29.6673V31.834ZM21.0007 22.084C17.4108 22.084 14.5007 19.1738 14.5007 15.584C14.5007 11.9941 17.4108 9.08398 21.0007 9.08398C24.5905 9.08398 27.5006 11.9941 27.5006 15.584C27.5006 19.1738 24.5905 22.084 21.0007 22.084ZM21.0007 19.9173C23.3938 19.9173 25.334 17.9772 25.334 15.584C25.334 13.1907 23.3938 11.2507 21.0007 11.2507C18.6074 11.2507 16.6673 13.1907 16.6673 15.584C16.6673 17.9772 18.6074 19.9173 21.0007 19.9173Z" fill="#2B48F1"/>
<defs>
<filter id="filter0_i_7320_518" x="0" y="0" width="42" height="42" filterUnits="userSpaceOnUse" color-interpolation-filters="sRGB">
<feFlood flood-opacity="0" result="BackgroundImageFix"/>
<feBlend mode="normal" in="SourceGraphic" in2="BackgroundImageFix" result="shape"/>
<feColorMatrix in="SourceAlpha" type="matrix" values="0 0 0 0 0 0 0 0 0 0 0 0 0 0 0 0 0 0 127 0" result="hardAlpha"/>
<feMorphology radius="1" operator="erode" in="SourceAlpha" result="effect1_innerShadow_7320_518"/>
<feOffset/>
<feGaussianBlur stdDeviation="5.5"/>
<feComposite in2="hardAlpha" operator="arithmetic" k2="-1" k3="1"/>
<feColorMatrix type="matrix" values="0 0 0 0 0.749038 0 0 0 0 0.78526 0 0 0 0 1 0 0 0 0.75 0"/>
<feBlend mode="normal" in2="shape" result="effect1_innerShadow_7320_518"/>
</filter>
</defs>
</svg>
